<?xml version="1.0" encoding="iso-8859-1"?>
<!-- Uploaded to: SVG Repo, www.svgrepo.com, Generator: SVG Repo Mixer Tools -->
<svg height="800px" width="800px" version="1.1" id="Layer_1" xmlns="http://www.w3.org/2000/svg" xmlns:xlink="http://www.w3.org/1999/xlink" 
	 viewBox="0 0 502.4 502.4" xml:space="preserve">
<path style="fill:#54B265;" d="M486.8,282.8c5.6-8.8,12.4-19.2,12.4-32.4c0-12.8-6.8-23.6-12.4-32.4c-3.2-4.8-6.4-9.6-7.2-13.2
	c-0.8-3.6,0.4-9.6,1.6-15.6c2-10.4,4-22.4-0.8-34c-4.8-12-14.8-18.8-24-24.8c-4.8-3.2-9.6-6.8-11.6-9.6c-2-3.2-3.2-8.8-4.4-14.8
	c-2.4-10.4-4.8-22.4-13.6-31.2C418,66,406,63.2,395.6,61.2c-5.6-1.2-11.6-2.4-14.8-4.4c-2.8-2-6.4-6.8-9.6-11.6
	c-6-8.8-12.8-18.8-24.8-24c-4.8-2-10-2.8-15.6-2.8c-6.4,0-12.4,1.2-18.4,2.4c-4.8,0.8-9.2,1.6-12.8,1.6c-1.2,0-2,0-2.8-0.4
	c-3.2-0.8-8.4-4-13.2-7.2c-8.4-5.6-19.2-12.4-32.4-12.4c-12.8,0-23.6,6.8-32.4,12.4c-4.8,3.2-9.6,6.4-13.2,7.2
	c-0.8,0-1.6,0.4-2.8,0.4c-3.6,0-8-0.8-12.8-1.6c-6-1.2-12-2.4-18.4-2.4c-6,0-10.8,0.8-15.6,2.8c-12,4.8-18.8,14.8-24.8,24
	c-3.2,4.8-6.8,10-9.6,11.6c-3.2,2-8.8,3.2-14.8,4.4C96.4,63.6,84.4,66,75.6,74.8C66.8,83.6,64,95.6,62,106
	c-1.2,5.6-2.4,11.6-4.4,14.8c-2,2.8-6.8,6.4-11.6,9.6c-8.8,6-18.8,12.8-24,24.8c-4.8,11.6-2.8,23.6-0.8,34c1.2,6,2.4,12,1.6,15.6
	c-0.8,3.2-4,8.4-7.2,13.2c-5.6,8.8-12.8,19.2-12.8,32.4c0,12.8,6.8,23.6,12.4,32.4c3.2,4.8,6.4,9.6,7.2,13.2s-0.4,9.6-1.6,15.6
	c-2,10.4-4,22.4,0.8,34c4.8,12,14.8,18.8,24,24.8c4.8,3.2,9.6,6.8,11.6,9.6c2,3.2,3.2,8.8,4.4,14.8c2.4,10.4,4.8,22.4,13.6,31.2
	c8.8,8.8,20.8,11.6,31.2,13.6c5.6,1.2,11.6,2.4,14.8,4.4c2.8,2,6.4,6.8,9.6,11.6c6,8.8,12.8,18.8,24.8,24c4.8,2,10,2.8,15.6,2.8
	c6.4,0,12.4-1.2,18.4-2.4c4.8-0.8,9.2-1.6,12.8-1.6c1.2,0,2,0,2.8,0.4c3.2,0.8,8.4,4,13.2,7.2c8.4,5.6,19.2,12.4,32.4,12.4
	c12.8,0,23.6-6.8,32.4-12.4c4.8-3.2,9.6-6.4,13.2-7.2c0.8,0,1.6-0.4,2.8-0.4c3.6,0,8,0.8,12.8,1.6c6,1.2,12,2.4,18.4,2.4
	c6,0,10.8-0.8,15.6-2.8c12-4.8,18.8-14.8,24.8-24c3.2-4.8,6.8-10,9.6-11.6c3.2-2,8.8-3.2,14.8-4.4c10.4-2.4,22.4-4.8,31.2-13.6
	c8.8-8.8,11.6-20.8,13.6-31.2c1.2-5.6,2.4-11.6,4.4-14.8c2-2.8,6.8-6.4,11.6-9.6c8.8-6,18.8-12.8,24-24.8c4.8-11.6,2.8-23.6,0.8-34
	c-1.2-6-2.4-12-1.6-15.6C480.4,292.4,483.6,287.6,486.8,282.8z"/>
<g>
	<path style="fill:#F4EFEF;" d="M178.4,116.4c-33.6,0-60.8,27.2-60.8,60.8c0,33.6,27.2,60.8,60.8,60.8s60.8-27.2,60.8-60.8
		C239.2,144,212,116.4,178.4,116.4z M178.4,206.8c-16,0-29.2-13.2-29.2-29.2s13.2-29.2,29.2-29.2s29.2,13.2,29.2,29.2
		C207.6,193.6,194.4,206.8,178.4,206.8z"/>
	<path style="fill:#F4EFEF;" d="M324,262.4c-33.6,0-60.8,27.2-60.8,60.8c0,33.6,27.2,60.8,60.8,60.8s60.8-27.2,60.8-60.8
		S357.6,262.4,324,262.4z M324,352.4c-16,0-29.2-13.2-29.2-29.2S308,294,324,294s29.2,13.2,29.2,29.2
		C353.6,339.2,340.4,352.4,324,352.4z"/>
	<path style="fill:#F4EFEF;" d="M137.6,364.4c3.2,3.2,7.2,4.8,11.2,4.8s8-1.6,11.2-4.8l205.6-205.6c6-6,6-16,0-22.4
		c-6-6-16-6-22.4,0L137.6,342C131.6,348,131.6,358,137.6,364.4z"/>
</g>
<path d="M148.8,372.8c-5.2,0-10.4-2-14-5.6s-5.6-8.8-5.6-14s2-10.4,5.6-14l205.6-205.6c3.6-3.6,8.8-5.6,14-5.6s10.4,2,14,5.6
	s5.6,8.8,5.6,14s-2,10.4-5.6,14L162.8,367.2C158.8,370.8,154,372.8,148.8,372.8z M354,136c-3.2,0-6,1.2-8.4,3.6L140,345.2
	c-2.4,2.4-3.6,5.2-3.6,8.4c0,3.2,1.2,6,3.6,8.4c4.4,4.4,12,4.4,16.8,0l205.6-205.6c2.4-2.4,3.6-5.2,3.6-8.4s-1.2-6-3.6-8.4
	C360.4,137.2,357.2,136,354,136z"/>
<path d="M178.4,242c-35.6,0-64.8-29.2-64.8-64.8c0-35.6,29.2-64.8,64.8-64.8s64.8,29.2,64.8,64.8C243.2,213.2,214,242,178.4,242z
	 M178.4,120.4c-31.2,0-56.8,25.6-56.8,56.8c0,31.2,25.6,56.8,56.8,56.8s56.8-25.6,56.8-56.8S209.6,120.4,178.4,120.4z M178.4,210.8
	c-18.4,0-33.2-14.8-33.2-33.2c0-18.4,14.8-33.2,33.2-33.2c2.4,0,4,1.6,4,4s-1.6,4-4,4c-14,0-25.2,11.2-25.2,25.2
	s11.2,25.2,25.2,25.2s25.2-11.2,25.2-25.2c0-2.4,1.6-4,4-4s4,1.6,4,4C211.6,195.6,196.8,210.8,178.4,210.8z"/>
<path d="M324.4,388c-35.6,0-64.8-29.2-64.8-64.8s29.2-64.8,64.8-64.8s64.8,29.2,64.8,64.8S360,388,324.4,388z M324.4,266.4
	c-31.2,0-56.8,25.6-56.8,56.8s25.6,56.8,56.8,56.8s56.8-25.6,56.8-56.8S355.6,266.4,324.4,266.4z M324.4,356.4
	c-18.4,0-33.2-14.8-33.2-33.2S306,290,324.4,290c2.4,0,4,1.6,4,4s-1.6,4-4,4c-14,0-25.2,11.2-25.2,25.2s11.2,25.2,25.2,25.2
	s25.2-11.2,25.2-25.2c0-2.4,1.6-4,4-4s4,1.6,4,4C357.6,341.6,342.4,356.4,324.4,356.4z"/>
<path d="M251.2,502.4c-14,0-25.2-7.2-34.4-13.2c-4-2.8-9.2-6-11.6-6.4c-0.4,0-0.8,0-2,0c-3.2,0-7.6,0.8-12,1.6
	c-6.4,1.2-12.4,2.4-19.2,2.4c-6.4,0-12-1.2-17.2-3.2c-12.8-5.2-20-16-26.4-25.2c-2.8-4-6.4-9.2-8.4-10.8c-2.4-1.6-8-2.8-13.2-4
	c-11.2-2.4-23.6-4.8-33.2-14.8c-10-10-12.4-22.4-14.8-33.2c-1.2-5.2-2.4-11.2-4-13.2C53.2,380,48,376.8,44,374
	c-9.2-6.4-20-13.6-25.2-26.4S16,322.4,18,311.2c0.8-5.2,2-11.2,1.6-14s-4-7.6-6.4-11.6C7.2,276.4,0,265.2,0,251.2
	s7.2-25.6,13.2-34.4c2.8-4,6-9.2,6.4-11.6c0.4-2.8-0.4-8.8-1.6-14c-2-11.2-4.4-23.6,0.8-36.4s16.4-20.4,25.2-26.4
	c4-2.8,9.2-6.4,10.8-8.4c1.6-2.4,2.8-8.4,4-13.2c2.4-11.2,4.8-23.6,14.8-33.2c10-10,22.4-12.4,33.2-14.8c5.2-1.2,11.2-2.4,13.2-4
	c2.4-1.6,5.6-6.8,8.4-10.8c6.4-9.2,13.6-20,26.4-25.2c5.2-2,10.8-3.2,17.2-3.2c6.8,0,13.2,1.2,19.2,2.4c4.4,0.8,8.8,1.6,12,1.6
	c0.8,0,1.6,0,2,0c2.4-0.4,7.6-4,11.6-6.4C226,7.2,237.2,0,251.2,0s25.2,7.2,34.4,13.2c4,2.8,9.2,6,11.6,6.4c0.4,0,1.2,0,2,0
	c3.2,0,7.6-0.8,12-1.6c6-1.2,12.4-2.4,19.2-2.4c6.4,0,12,1.2,17.2,3.2c12.8,5.2,20,16,26.4,25.2c2.8,4,6.4,9.2,8.4,10.8
	c2.4,1.6,8,2.8,13.2,4c11.2,2.4,23.6,5.2,33.2,14.8c10,10,12.4,22.4,14.8,33.2c1.2,5.2,2.4,11.2,4,13.2c1.6,2.4,6.8,5.6,10.8,8.4
	c9.2,6.4,20,13.6,25.2,26.4s2.8,25.2,0.8,36.4c-0.8,5.2-2,11.2-1.6,14c0.4,2.4,4,7.6,6.4,11.6c6,9.2,13.2,20.4,13.2,34.4
	s-7.2,25.2-13.2,34.4c-2.8,4-6,9.2-6.4,11.6c-0.4,2.8,0.4,8.8,1.6,14c2,10.4,4.4,23.6-0.8,36.4c-5.2,12.8-16,20-25.2,26.4
	c-4,2.8-9.2,6.4-10.8,8.4c-1.6,2.4-2.8,8-4,13.2c-2.4,11.2-4.8,23.6-14.8,33.6s-22.4,12.4-33.2,14.8c-5.2,1.2-10.8,2.4-13.2,4
	s-5.6,6.8-8.4,10.8c-6.4,9.2-13.6,20-26.4,25.2c-5.2,2-10.8,3.2-17.2,3.2c-6.8,0-13.2-1.2-19.2-2.4c-4.8-0.8-8.8-1.6-12-1.6
	c-1.2,0-1.6,0-2,0c-2.8,0.4-7.6,4-11.6,6.4C276.4,495.2,265.2,502.4,251.2,502.4z M203.2,474.4c1.2,0,2.4,0,3.6,0.4
	c4,0.8,9.2,4,14.4,7.6c8,5.2,18.4,12,30,12s22-6.8,30-12c5.6-3.6,10.4-6.8,14.4-7.6c1.2-0.4,2-0.4,3.6-0.4c4,0,8.4,0.8,13.2,1.6
	c6,1.2,11.6,2,17.6,2c5.2,0,10-0.8,14-2.4c10.8-4.4,16.8-13.6,22.8-22.4c3.6-5.2,7.2-10.4,10.8-12.8s9.6-3.6,16-5.2
	c10-2,21.2-4.4,29.6-12.8s10.4-19.2,12.8-29.2c1.2-6.4,2.8-12.4,5.2-16s7.6-7.2,12.8-10.8c8.4-5.6,18-12.4,22.4-22.8
	s2.4-22,0.4-31.6c-1.2-6-2.4-12.8-1.6-17.2c0.8-4,4-9.2,7.6-14.4c5.2-8.4,12-18.4,12-30s-6.8-22-12-30c-3.6-5.2-6.8-10.4-7.6-14.4
	c-0.8-4.4,0.4-10.8,1.6-17.2c2-10,4-21.2-0.4-31.6c-4.4-10.8-14-17.2-22.4-22.8c-5.2-3.6-10.4-7.2-12.8-10.8
	c-2.4-3.6-3.6-9.6-5.2-16c-2-10-4.4-21.6-12.8-29.6c-8-8-19.2-10.4-29.2-12.8c-6.4-1.2-12.4-2.8-16-5.2c-3.6-2.4-7.2-7.6-10.8-12.8
	c-6-8.8-12.4-18-23.2-22.4c-4.4-1.6-8.8-2.4-14-2.4c-6,0-12,1.2-17.6,2c-6.8,1.2-12.8,2.4-17.2,1.6c-4-0.8-9.2-4-14.4-7.6
	c-8-5.2-18.4-12-30-12s-22,6.8-30,12c-5.2,3.2-10.4,6.8-14.4,7.6c-4.4,0.8-10.4-0.4-17.2-1.6c-5.6-1.2-11.6-2-17.6-2
	c-5.2,0-10,0.8-14,2.4c-10.8,4.4-16.8,13.6-22.8,22.4c-3.6,5.2-7.2,10.4-10.8,12.8s-9.6,3.6-16,5.2C97.6,67.6,86.8,69.6,78.8,78
	c-8,8-10.4,19.2-12.8,29.2c-1.2,6-2.8,12.4-5.2,16S53.2,130.4,48,134c-8.4,5.6-18,12.4-22.4,23.2c-4.4,10.4-2.4,22-0.4,31.6
	c1.2,6.4,2.4,12.8,1.6,17.2c-0.8,4-4,9.2-7.6,14.4c-5.2,8-12,18.4-12,30s6.8,22,12,30c3.6,5.2,6.8,10.4,7.6,14.4
	c0.8,4.4-0.4,10.4-1.6,16.8c-2,10-4,21.2,0.4,32s14,17.2,22.4,23.2c5.2,3.6,10.4,7.2,12.8,10.8c2.4,3.6,3.6,9.6,5.2,16
	c2,10,4.4,21.2,12.8,29.6c8,8,19.2,10.4,29.2,12.8c6.4,1.2,12.4,2.8,16,5.2c3.6,2.4,7.2,7.6,10.8,12.8c5.6,8.4,12.4,18,22.8,22.4
	c4.4,1.6,8.8,2.4,14,2.4c6,0,11.6-1.2,17.6-2C194.4,475.6,199.2,474.4,203.2,474.4z M251.2,470.8c-4.8,0-11.2-4-17.2-8
	c-6.8-4.4-14.4-9.2-22.8-11.2c-8-1.6-17.6,0-25.6,1.2c-7.2,1.2-14.8,2.4-18.4,1.2c-4-1.6-7.6-6.4-12.4-14
	c-4.8-6.8-9.6-14.4-17.2-19.2c-7.6-4.8-16.4-6.8-24.4-8.4c-8.4-1.6-14.4-3.2-17.6-6.4c-3.2-3.2-4.4-8.8-6.4-17.6
	c-1.6-8-3.6-16.8-8.4-24.4c-4.8-7.2-12.4-12.4-19.2-17.2c-7.2-4.8-12.4-8.8-14-12.4c-1.6-4-0.8-9.6,0.8-18.4c1.6-8,3.2-17.2,1.6-26
	c-1.6-8.8-6.8-16-11.2-22.8c-4.8-7.2-8-12.8-8-17.2c0-4.4,3.2-10,8-17.2C43.2,226,48,218.4,50,210c1.6-8.8,0-18-1.6-26
	c-1.6-8.8-2.4-14.4-0.8-18.4c1.6-4,6.4-7.6,14-12.4c6.8-4.4,14-9.6,19.2-17.2c4.8-7.6,6.8-16.4,8.4-24.4c2-8.8,3.2-14.4,6.4-17.6
	c2.8-2.8,9.2-4.4,17.6-6.4c8-1.6,16.8-3.6,24.4-8.4c7.2-4.8,12.4-12.4,16.8-19.2c4.8-7.2,8.8-12.4,12.8-14
	c3.6-1.6,11.2-0.4,18.4,0.8c8.4,1.6,18,3.2,26,1.6c8.4-1.6,16-6.8,22.8-11.2c6-4,12.4-8,17.2-8s11.2,4,17.2,8
	c6.8,4.4,14.4,9.2,22.8,11.2c8,1.6,18,0,26-1.6c7.2-1.2,14.8-2.4,18.4-0.8c4,1.6,7.6,6.4,12.4,14c4.4,6.8,9.6,14.4,17.2,19.2
	C373.2,84,382,86,390,87.6c8.8,2,14.4,3.2,17.6,6.4c3.2,2.8,4.4,8.8,6.4,17.6c1.6,8,3.6,16.8,8.4,24.4c4.8,7.2,12.4,12.4,19.2,17.2
	c7.2,4.8,12.4,8.8,14,12.8c1.6,3.6,0.8,9.6-0.8,18.4c-1.6,8-3.2,17.2-1.6,26c1.6,8.4,6.8,16,11.2,22.8c4.8,7.2,8,12.8,8,17.2
	c0,4.4-3.2,10-8,17.2c-4.4,6.8-9.2,14.4-11.2,22.8c-1.6,8.8,0,18,1.6,26c1.6,8.8,2.4,14.8,0.8,18.4c-1.6,4-6.8,7.6-14,12.4
	c-6.8,4.4-14,9.6-19.2,17.2c-4.8,7.6-6.8,16.4-8.4,24.4c-2,8.8-3.2,14.4-6.4,17.6c-2.8,2.8-9.2,4.4-17.6,6.4
	c-8,1.6-16.8,3.6-24.4,8.4c-7.2,4.8-12.4,12.4-17.2,19.2c-5.2,7.2-8.8,12.4-12.4,14c-3.6,1.6-11.2,0.4-18.4-0.8
	c-5.6-1.2-11.6-2-18-2c-2.8,0-5.6,0.4-8,0.8c-8.4,1.6-16,6.8-22.8,10.8C262.4,466.8,256,470.8,251.2,470.8z M203.2,443.2
	c3.6,0,6.8,0.4,9.6,0.8c10,2,18.4,7.2,25.6,12c4,2.4,10.4,6.8,12.8,6.8c2.4,0,8.8-4.4,12.8-6.8c7.2-4.8,15.6-10,25.6-12
	c3.2-0.8,6-0.8,9.6-0.8c6.8,0,13.6,1.2,19.2,2.4c4.4,0.8,8.8,1.6,12,1.6c1.6,0,2,0,2,0c2-0.8,6.4-7.2,8.8-11.2
	c4.8-7.2,10.4-15.6,19.2-21.2c8.8-6,18.4-8,27.2-9.6c4-0.8,12-2.4,13.6-4s3.2-9.2,4-13.6c2-8.8,4-18.4,9.6-27.2
	c5.6-8.8,14-14.4,21.2-19.2c3.6-2.4,10.4-6.8,11.2-9.2c0.8-2-0.8-9.6-1.6-13.6c-1.6-8.8-3.6-18.8-1.6-29.2c2-10,7.2-18.4,12-25.6
	c2.4-4,6.8-10.4,6.8-12.8s-4.4-8.8-6.8-12.8c-4.8-7.2-10-15.6-12-25.6c-2-10.4-0.4-20,1.6-28.8c0.8-4.4,2.4-12,1.6-14
	c-0.8-2-7.6-6.8-11.2-9.2c-7.2-4.8-15.6-10.4-21.2-19.2c-6-8.8-8-18.4-9.6-27.2c-0.8-4-2.4-12-4-13.6s-9.2-3.2-13.6-4
	c-8.8-2-18.4-4-27.2-9.6c-8.8-6-14.4-14-19.2-21.2c-2.8-4-6.8-10-9.2-11.2l0,0c0,0-0.4,0-2,0c-3.2,0-7.6,0.8-12,1.6
	c-6,1.2-12.4,2.4-19.2,2.4c-3.6,0-6.4-0.4-9.6-0.8c-10-2-18.4-7.2-25.6-12c-4-2.4-10.4-6.8-12.8-6.8c-2.4,0-8.8,4.4-12.8,6.8
	c-7.2,4.8-15.6,10-25.6,12c-3.2,0.8-6.4,0.8-9.6,0.8c-6.8,0-13.2-1.2-19.2-2.4c-4.4-0.8-8.8-1.6-12-1.6c-1.6,0-2,0-2,0
	c-2,0.8-6.4,7.2-9.2,11.2c-5.2,7.2-10.4,15.6-19.2,21.2c-8.8,6-18.4,8-27.2,9.6c-4.4,0.8-12,2.4-13.6,4s-3.2,9.2-4,13.6
	c-2,8.8-4,18.4-9.6,27.2c-6,8.8-14,14.4-21.2,19.2c-4,2.8-10,6.8-11.2,9.2c-0.8,2,0.8,9.6,1.6,14c1.6,8.8,3.6,18.8,1.6,29.2
	c-2,10-7.2,18.4-12,25.6c-2.4,4-6.8,10.4-6.8,12.8s4.4,9.2,6.8,12.8c4.8,7.2,10,15.6,12,25.6c2,10.4,0.4,20-1.6,28.8
	c-0.8,4.4-2.4,12-1.6,14c0.8,2,7.6,6.8,11.2,9.2c7.2,4.8,15.6,10.4,21.2,19.2c6,8.8,8,18.4,9.6,27.2c0.8,4.4,2.4,12,4,13.6
	s9.2,3.2,13.6,4c8.8,2,18.4,4,27.2,9.6c8.8,6,14.4,14,19.2,21.2c2.8,4,6.8,10.4,9.2,11.2l0,0c0,0,0.4,0,2,0c3.2,0,7.6-0.8,12-1.6
	C189.6,444.4,196.4,443.2,203.2,443.2z"/>
</svg>